<svg width="200" height="100" viewBox="0 0 200 100" fill="none" xmlns="http://www.w3.org/2000/svg">
<path d="M44.4189 12.3049C44.3868 12.0165 44.1304 11.8882 43.9381 11.8562C43.7458 11.8241 39.8994 11.7921 39.8994 11.7921C39.8994 11.7921 36.662 8.65088 36.3415 8.33035C36.021 8.00982 35.412 8.10597 35.1555 8.17008C35.1555 8.17008 34.5465 8.3624 33.5208 8.68293C33.3605 8.13803 33.1041 7.46491 32.7515 6.79179C31.5976 4.58013 29.9309 3.42621 27.8795 3.42621C27.7512 3.42621 27.591 3.42621 27.4628 3.45826C27.3987 3.39416 27.3345 3.33005 27.2704 3.23389C26.373 2.2723 25.2511 1.82355 23.9049 1.85561C21.2765 1.91971 18.6802 3.81085 16.5326 7.20849C15.0261 9.58042 13.9043 12.5614 13.5837 14.8692C10.5707 15.7987 8.45523 16.4398 8.42318 16.4719C6.91668 16.9527 6.85257 16.9847 6.66025 18.4271C6.49998 19.4849 2.52539 50.288 2.52539 50.288L35.8927 56.0575L50.3487 52.4676C50.3487 52.4676 44.4509 12.5614 44.4189 12.3049ZM31.854 9.19578C31.0848 9.42016 30.2193 9.70863 29.2577 9.99711C29.2257 8.68293 29.0654 6.82385 28.4564 5.22119C30.4758 5.60583 31.4374 7.84955 31.854 9.19578ZM27.5269 10.542C25.7639 11.0869 23.8728 11.6639 21.9496 12.2729C22.4945 10.2215 23.5202 8.17008 24.7703 6.82385C25.2511 6.311 25.8922 5.76609 26.6614 5.44556C27.3987 6.95206 27.5269 9.09962 27.5269 10.542ZM23.9369 3.61853C24.5459 3.61853 25.0588 3.74674 25.5075 4.03522C24.8023 4.38781 24.0972 4.93271 23.4561 5.63788C21.7894 7.43286 20.5072 10.1894 19.9944 12.8819C18.3917 13.3627 16.8532 13.8435 15.4108 14.2922C16.3724 10.0612 19.8982 3.74674 23.9369 3.61853Z" fill="#95BF47"/>
<path d="M43.9409 11.8583C43.7485 11.8263 39.9022 11.7942 39.9022 11.7942C39.9022 11.7942 36.6648 8.65299 36.3443 8.33246C36.216 8.20424 36.0558 8.14014 35.8955 8.14014L35.8955 56.0596L50.3515 52.4697C50.3515 52.4697 44.4537 12.5955 44.4217 12.307C44.3575 12.0186 44.1332 11.8904 43.9409 11.8583Z" fill="#5E8E3E"/>
<path d="M27.8806 19.2967L26.2138 25.5791C26.2138 25.5791 24.3548 24.7137 22.111 24.8739C18.8416 25.0663 18.8096 27.1177 18.8416 27.6626C19.0339 30.4832 26.4062 31.0923 26.8229 37.6632C27.1434 42.8558 24.0663 46.3816 19.6429 46.6701C14.3221 46.9906 11.4053 43.8815 11.4053 43.8815L12.5271 39.1055C12.5271 39.1055 15.476 41.3172 17.8159 41.189C19.3545 41.0928 19.8994 39.8428 19.8353 38.9453C19.6109 35.2912 13.5849 35.4835 13.2003 29.4896C12.8797 24.4252 16.2132 19.2967 23.5534 18.8159C26.4382 18.5595 27.8806 19.2967 27.8806 19.2967Z" fill="#FBF8EF"/>
<path d="M69.9371 32.6927C68.2703 31.7952 67.4049 31.0259 67.4049 29.9682C67.4049 28.6219 68.5909 27.7565 70.482 27.7565C72.6616 27.7565 74.5848 28.654 74.5848 28.654L76.1234 23.9742C76.1234 23.9742 74.713 22.8844 70.5782 22.8844C64.8086 22.8844 60.802 26.1859 60.802 30.8336C60.802 33.462 62.661 35.4813 65.1612 36.9237C67.1805 38.0776 67.8857 38.879 67.8857 40.097C67.8857 41.3471 66.8921 42.3407 65.0009 42.3407C62.2123 42.3407 59.5839 40.8983 59.5839 40.8983L57.9492 45.5781C57.9492 45.5781 60.3853 47.2128 64.456 47.2128C70.3859 47.2128 74.6489 44.2959 74.6489 39.0392C74.681 36.1865 72.5334 34.1671 69.9371 32.6927ZM93.5924 22.8203C90.6755 22.8203 88.3677 24.1986 86.6048 26.3141L86.5086 26.2821L89.0408 13.012H82.4378L76.0272 46.764H82.6302L84.8418 35.2249C85.7073 30.8657 87.951 28.1732 90.0665 28.1732C91.5409 28.1732 92.1179 29.1668 92.1179 30.6092C92.1179 31.5067 92.0217 32.6286 91.8294 33.5261L89.3293 46.732H95.9322L98.5285 33.0773C98.817 31.6349 99.0093 29.9041 99.0093 28.7822C99.0093 25.0961 97.022 22.8203 93.5924 22.8203ZM113.946 22.8203C105.997 22.8203 100.74 30.0002 100.74 38.0135C100.74 43.142 103.913 47.2448 109.843 47.2448C117.632 47.2448 122.921 40.2572 122.921 32.0516C122.889 27.3398 120.1 22.8203 113.946 22.8203ZM110.677 42.1804C108.433 42.1804 107.471 40.2572 107.471 37.8853C107.471 34.103 109.427 27.9168 113.017 27.9168C115.356 27.9168 116.126 29.9361 116.126 31.8914C116.126 35.9621 114.17 42.1804 110.677 42.1804ZM139.781 22.8203C135.326 22.8203 132.793 26.7308 132.793 26.7308H132.697L133.082 23.1729L127.248 23.1729C126.96 25.5769 126.447 29.1989 125.902 31.9234L121.318 56.0915H127.921L129.748 46.3153H129.877C129.877 46.3153 131.223 47.1807 133.755 47.1807C141.512 47.1807 146.576 39.2315 146.576 31.1862C146.608 26.7949 144.621 22.8203 139.781 22.8203ZM133.466 42.2766C131.736 42.2766 130.742 41.315 130.742 41.315L131.832 35.1287C132.601 31.0259 134.749 28.2694 137.056 28.2694C139.076 28.2694 139.685 30.1284 139.685 31.9234C139.685 36.1865 137.153 42.2766 133.466 42.2766ZM156.032 13.3646C153.916 13.3646 152.25 15.0314 152.25 17.211C152.25 19.1663 153.5 20.5125 155.359 20.5125H155.455C157.506 20.5125 159.301 19.1342 159.333 16.6661C159.333 14.7429 158.051 13.3646 156.032 13.3646ZM146.801 46.764H153.404L157.891 23.3652H151.224L146.801 46.764ZM174.687 23.3011H170.103L170.328 22.2113C170.712 19.9676 172.059 17.9482 174.238 17.9482C175.424 17.9482 176.354 18.2688 176.354 18.2688L177.636 13.1082C177.636 13.1082 176.482 12.5312 174.046 12.5312C171.706 12.5312 169.366 13.2044 167.571 14.7429C165.327 16.6661 164.27 19.4227 163.725 22.2113L163.532 23.3011H160.455L159.494 28.2694H162.571L159.077 46.764H165.68L169.174 28.2694H173.725L174.687 23.3011ZM190.585 23.3652C190.585 23.3652 186.45 33.7825 184.591 39.4559H184.495C184.367 37.6289 182.86 23.3652 182.86 23.3652H175.937L179.912 44.8729C180.008 45.3537 179.944 45.6422 179.783 45.9627C179.014 47.4372 177.732 48.8796 176.193 49.9373C174.943 50.8348 173.565 51.4118 172.443 51.7964L174.27 57.4057C175.616 57.1172 178.373 56.0274 180.745 53.8157C183.758 50.9951 186.547 46.6358 189.399 40.706L197.477 23.3652H190.585Z" fill="#2A2928"/>
<path d="M75.1875 62.2314L77.9629 63.2051C79.4661 63.7325 80.7292 64.8526 81.4743 66.319C82.2193 67.7854 82.3853 69.478 81.9358 71.0244L81.2764 73.2926L78.501 72.319C76.9977 71.7916 75.7347 70.6715 74.9896 69.2051C74.2445 67.7387 74.0785 66.0461 74.5281 64.4997L75.1875 62.2314Z" fill="#758F2A"/>
<path d="M75.1875 62.2314L77.9629 63.2051C78.7072 63.4662 79.4004 63.8756 80.0029 64.4099C80.6054 64.9442 81.1054 65.5929 81.4743 66.319C81.8432 67.0451 82.0738 67.8343 82.153 68.6417C82.2322 69.449 82.1584 70.2587 81.9358 71.0244L81.2764 73.2926" fill="#3D5300"/>
<path d="M72.4238 72.1705C72.5315 72.2242 72.6972 72.2098 72.6093 72.4776C72.5827 72.5564 72.6322 72.596 72.6891 72.6068C72.7459 72.6177 72.8236 72.6555 72.8425 72.5485C72.894 72.2484 73.0386 72.3572 73.1615 72.3849C73.2844 72.4126 73.4149 72.4939 73.453 72.2205C73.4558 72.2015 73.4769 72.169 73.4854 72.1691C73.8096 72.2342 73.7593 71.8739 73.8338 71.6582C73.8591 71.5846 73.8914 71.5417 73.9508 71.5676C74.0598 71.6161 74.1288 71.58 74.1546 71.413C74.1818 71.2323 74.0677 71.2615 73.9972 71.229C73.9496 71.2071 73.8979 71.2008 73.8482 71.1867C73.4592 71.1251 73.0936 70.9637 72.7179 70.85C72.6496 70.6679 72.5255 70.6115 72.3777 70.5895C72.2378 70.5702 72.0953 70.5443 72.0381 70.3434C71.8781 70.2861 71.7161 70.228 71.5561 70.1707C71.341 69.8961 71.1186 69.6417 70.785 69.6217L70.6458 69.5743C70.6058 69.4812 70.5637 69.396 70.4748 69.3771C70.249 69.1442 69.9163 69.0791 69.8066 68.6674C69.7139 68.6302 69.6238 68.591 69.5311 68.5537C69.4334 68.3532 69.3495 68.1488 69.1325 68.0975C69.0122 68.0679 68.9931 67.8601 68.9343 67.7238C68.8364 67.6734 68.718 67.6615 68.7257 67.4571C68.7347 67.256 68.5874 67.2653 68.4907 67.2268C68.3549 67.1748 68.2866 67.092 68.3421 66.8925C68.1548 66.8004 68.0051 66.653 67.9358 66.3997C67.8581 66.3704 67.781 66.3385 67.7033 66.3092C67.6147 66.123 67.561 65.8921 67.3491 65.8709C67.27 65.8638 67.2634 65.7567 67.235 65.6846C67.193 65.5739 67.1585 65.4345 67.0499 65.4259C66.8523 65.4068 66.8847 65.2307 66.8942 65.061C66.8178 65.0264 66.7415 64.9919 66.6644 64.96C66.5779 64.749 66.4899 64.5603 66.2802 64.5059C66.154 64.4742 66.1375 64.2645 66.0742 64.1294C65.9658 64.0784 65.8508 64.0533 65.867 63.832C65.8784 63.6714 65.7442 63.6881 65.6685 63.634C65.6019 63.3788 65.4542 63.232 65.2662 63.1425C65.3171 62.9273 65.2378 62.8294 65.0908 62.7963C65.0228 62.6711 64.981 62.5264 64.9183 62.3973C64.9078 62.3881 64.8955 62.3782 64.885 62.369C64.8091 62.2495 64.7681 62.1023 64.7158 61.9654C64.6577 61.835 64.6061 61.6955 64.5512 61.5605C64.5265 61.416 64.3959 61.3601 64.3877 61.2014C64.4167 61.0468 64.4528 60.8975 64.3107 60.8037C64.2162 60.7403 64.2738 60.6068 64.2882 60.5011C64.3046 60.3791 64.319 60.2564 64.3347 60.1369C64.252 59.9528 64.1738 59.7674 64.2288 59.5281C64.396 58.7853 64.5631 58.0425 64.7329 57.2978C64.7847 56.805 64.9704 56.372 65.2017 55.9772C65.2975 55.8113 65.3364 55.6346 65.3996 55.4633C65.5126 55.1558 65.6255 54.8483 65.8466 54.6344C65.8754 54.5307 65.9054 54.4303 65.9341 54.3267C66.1305 54.2008 66.2658 54.0058 66.3458 53.7438C66.4327 53.6458 66.5184 53.5445 66.6267 53.4878L66.6312 53.495C66.7287 53.3893 66.8481 53.3307 66.9481 53.2315C66.9769 53.1278 67.0049 53.0268 67.0356 52.9238C67.1529 52.8985 67.284 52.9772 67.3431 52.7138C67.3739 52.5768 67.5587 52.5461 67.6451 52.4168C67.7408 52.2764 67.8611 52.1897 67.9923 52.1267C68.0917 52.0216 68.2086 51.948 68.3165 51.8599C68.4249 51.7778 68.5398 51.712 68.6392 51.6069C68.7579 51.5764 68.8125 51.405 68.924 51.3607C69.0324 51.2786 69.1422 51.1997 69.2506 51.1175L69.2494 51.1057C69.3636 51.0426 69.4714 50.9545 69.5779 50.8717C69.694 50.8346 69.8265 50.8996 69.9101 50.6899C69.9639 50.5551 70.0792 50.6454 70.1676 50.6415C70.2812 50.5724 70.3884 50.4869 70.4968 50.4048C70.5602 50.4235 70.6216 50.4416 70.685 50.4604C70.7669 50.4316 70.8354 50.3641 70.9045 50.3026C71.0323 50.1448 71.2137 50.1272 71.346 49.9851C71.4337 49.9922 71.522 49.9968 71.6097 50.004C71.7253 49.9356 71.8247 49.8305 71.946 49.7811C72.0205 49.8064 72.093 49.8311 72.1675 49.8565C72.2512 49.9701 72.2805 50.1303 72.3478 50.2582C72.4704 50.4616 72.6681 50.4467 72.8379 50.5158C73.0018 50.5745 73.1609 50.6854 73.341 50.5397C73.3737 50.5452 73.4064 50.5507 73.4391 50.5561C73.6286 50.6065 73.7812 50.477 73.9292 50.3317C74.0122 50.2494 74.099 50.1768 74.191 50.1089C74.28 49.7621 74.367 49.4146 74.4533 49.0696C74.5394 48.7842 74.3905 48.6002 74.3185 48.3828C74.2538 48.3608 74.1924 48.3342 74.1277 48.3122C73.836 47.9378 73.4764 47.8777 73.0724 48.0237C73.009 48.0049 72.9437 47.9855 72.8803 47.9668C72.7712 48.0515 72.6589 48.1239 72.5543 48.2159C72.507 48.4833 72.3882 48.5393 72.2094 48.4557C72.131 48.4205 72.0481 48.3866 71.9588 48.4271C71.8148 48.5567 71.665 48.6673 71.4859 48.6177C71.4539 48.6096 71.4212 48.6041 71.3892 48.596C71.2768 48.6684 71.1703 48.7597 71.0587 48.8295L70.8698 48.7765C70.7549 48.8423 70.6484 48.9336 70.5367 49.0118C70.4227 49.0325 70.2999 48.9879 70.2132 49.1682C70.1503 49.2971 70.0394 49.2309 69.9484 49.2368C69.8386 49.3157 69.7308 49.4038 69.6172 49.4728C69.5022 49.4393 69.3944 49.4026 69.3225 49.6163C69.272 49.7636 69.1757 49.6656 69.0985 49.6591C68.9874 49.7348 68.8738 49.8123 68.7705 49.9076C68.7016 49.9437 68.6398 49.9935 68.5793 50.0466C68.4298 50.2056 68.2564 50.3167 68.096 50.452L68.0934 50.4455C67.8786 50.585 67.7032 50.8117 67.4871 50.9479L67.4832 50.9466C67.3806 51.0393 67.2637 51.1044 67.1605 51.1997C67.1138 51.3482 67.0635 51.4445 66.9153 51.499C66.7717 51.5522 66.6573 51.7571 66.5153 51.8789C66.3305 52.0343 66.1026 52.1665 66.0542 52.513C66.0393 52.6128 65.9432 52.5971 65.8757 52.611C65.7518 52.6369 65.7588 52.7924 65.7098 52.892C65.5429 53.011 65.3891 53.1287 65.3332 53.4046C65.2975 53.5853 65.1298 53.6246 65.0219 53.7296C64.9631 53.9421 64.905 54.152 64.8481 54.3652C64.6385 54.5093 64.4687 54.6897 64.4655 55.026C64.4441 55.1095 64.4227 55.193 64.4013 55.2764C64.1047 55.6433 63.9183 56.0789 63.8533 56.5899C63.8038 56.7829 63.7543 56.9759 63.7048 57.1689C63.6279 57.2277 63.5561 57.2997 63.5299 57.4184C63.4514 57.7745 63.3309 58.1276 63.4133 58.496C63.3526 58.9234 63.1678 59.3198 63.147 59.758C63.2419 59.8867 63.227 60.0858 63.2942 60.2306C63.2734 60.3369 63.2505 60.4426 63.2296 60.5489C63.2668 60.6948 63.3328 60.8194 63.3772 60.9621C63.3472 61.1703 63.3455 61.3682 63.4604 61.5349C63.5363 61.6459 63.4367 61.7849 63.4556 61.9105C63.4503 61.9314 63.4456 61.9496 63.4448 61.9692C63.4964 62.1087 63.548 62.2482 63.6081 62.3793C63.7886 62.4152 63.8382 62.554 63.7741 62.7789C63.8425 63.0688 64.0135 63.2745 64.1141 63.5384C64.1898 63.5671 64.2669 63.599 64.3426 63.6276C64.4125 63.7705 64.4627 63.9322 64.5569 64.0551L64.5529 64.0537C64.639 64.2248 64.6856 64.4335 64.8784 64.4878C65.0071 64.526 64.851 64.7025 64.91 64.7964C64.9845 64.8302 65.0608 64.8648 65.1353 64.8986C65.2092 65.0174 65.243 65.1678 65.3137 65.2912C65.3914 65.3205 65.4685 65.3524 65.5462 65.3817C65.6288 65.5828 65.703 65.7839 65.9121 65.8324C66.0507 65.8654 66.0685 66.0785 66.1358 66.2149C66.2128 66.2468 66.2886 66.2754 66.3656 66.3073C66.362 66.4876 66.3407 66.6703 66.5474 66.6868C66.6455 66.6947 66.6728 66.8458 66.7148 66.948C66.749 67.0306 66.7575 67.1469 66.8663 67.1131C66.8957 67.1231 66.9251 67.1331 66.9558 67.1464C67.087 67.2166 67.0472 67.4299 67.1349 67.5363C67.2635 67.6 67.4388 67.6143 67.3567 67.9011C67.5466 67.9913 67.6944 68.138 67.763 68.3939L67.9961 68.4903C68.0674 68.6111 68.1006 68.7641 68.1771 68.881C68.2542 68.9129 68.3319 68.9422 68.4089 68.9741C68.485 69.1843 68.5611 69.3776 68.7703 69.4261C68.9069 69.4585 68.9233 69.6767 69.0018 69.8027C69.1799 69.9059 69.4085 69.8788 69.4824 70.2301C69.5156 70.3917 69.7507 70.3555 69.8937 70.4127C70.1214 70.7795 70.4714 70.9186 70.7792 71.1226C70.9161 71.2118 71.0089 71.3484 71.1275 71.4511L71.4704 71.5679C71.8569 71.6145 72.1678 71.8395 72.433 72.1765L72.4238 72.1705Z" fill="#2A2928"/>
<path d="M92.3842 77.7466C92.2154 77.6891 92.1043 77.7393 92.0805 78.0066C92.0699 78.1392 92.0259 78.269 91.9963 78.4009C91.9883 78.4322 91.9723 78.4694 91.9755 78.4988C92.003 78.7324 92.1694 78.8657 92.2074 79.1C92.215 79.1537 92.3526 79.1665 92.3791 79.0137C92.4076 78.836 92.4856 78.8399 92.5903 78.8727C92.7297 78.9201 92.8711 78.9512 93.0125 78.9908C93.076 79.0096 93.1731 79.0142 93.1389 79.1389C93.0619 79.4221 93.2221 79.3886 93.338 79.4195C93.4511 79.353 93.5545 79.2661 93.6645 79.1871C93.7175 79.1967 93.7679 79.2082 93.821 79.2177C94.1317 79.3546 94.4426 79.2163 94.7545 79.1323C94.9018 79.1739 95.0464 79.2174 95.1937 79.2591C95.4393 79.1922 95.6831 79.0907 95.9348 79.1082C96.0861 79.1426 96.2447 79.2562 96.361 78.9864C96.3637 78.976 96.3775 78.9636 96.3814 78.965C96.6444 79.0715 96.8797 78.8535 97.1286 78.7906C97.3515 78.8949 97.531 78.7033 97.7218 78.5837C97.8384 78.6035 97.9522 78.6508 98.0372 78.4526C98.0937 78.3242 98.1917 78.3917 98.2749 78.4001C98.3686 78.4093 98.4623 78.4185 98.556 78.4276C98.6692 78.3526 98.774 78.252 98.8988 78.215C99.0061 78.1295 99.096 78.004 99.2208 77.9585C99.2843 77.9772 99.3485 77.9934 99.412 78.0122C99.5219 77.9332 99.6293 77.8477 99.7411 77.7779C99.8564 77.7944 99.9501 77.8121 100.062 77.6599C100.206 77.4622 100.399 77.61 100.571 77.623C100.687 77.5605 100.793 77.4658 100.905 77.3934L100.903 77.3842C101.017 77.3151 101.122 77.223 101.236 77.1512C101.3 77.1674 101.365 77.1836 101.427 77.1991C101.531 77.0926 101.656 77.0615 101.776 77.0028C101.993 77.0456 102.168 76.8808 102.352 76.7559L102.35 76.7468C102.462 76.6685 102.566 76.579 102.682 76.5105C102.789 76.5329 102.898 76.584 102.971 76.3989C103.025 76.2639 103.115 76.3032 103.198 76.3201C103.287 76.1828 103.43 76.1891 103.528 76.0747C103.637 75.9644 103.75 75.858 103.88 75.7857C103.985 75.691 104.099 75.6218 104.204 75.5298C104.242 75.3385 104.32 75.22 104.486 75.2709C104.567 75.0146 104.693 74.8135 104.897 74.7071C104.926 74.6033 104.955 74.4996 104.984 74.3958C105.292 74.2281 105.374 73.839 105.52 73.5112C105.615 73.2994 105.638 73.0288 105.834 72.8969C105.844 72.4661 106.024 72.0816 106.108 71.673C106.147 71.4876 106.193 71.3074 106.236 71.1234C106.319 70.8082 106.332 70.4918 106.318 70.172C106.338 69.9544 106.443 69.7348 106.338 69.5229L106.407 69.1945C106.453 68.8725 106.357 68.5671 106.397 68.2457C106.377 68.1626 106.426 68.0799 106.412 67.9954C106.419 67.9523 106.426 67.9066 106.435 67.8642C106.393 67.7194 106.325 67.594 106.286 67.4447C106.292 67.4042 106.299 67.3611 106.305 67.3206C106.318 67.1801 106.35 67.0319 106.274 66.9182C106.181 66.7757 106.202 66.6098 106.221 66.4373C106.098 66.3246 105.996 66.199 106.068 65.9654C106.021 65.8245 105.966 65.6894 105.911 65.557C105.992 65.2581 105.768 65.1165 105.714 64.8854C105.683 64.7557 105.629 64.6095 105.61 64.4583C105.553 64.3252 105.503 64.1862 105.445 64.053L105.44 64.0569C105.409 63.9044 105.286 63.8172 105.281 63.6452C105.258 63.5012 105.132 63.444 105.117 63.2942L105.115 63.2935C105.052 63.1669 105.005 63.0233 104.944 62.8947L104.95 62.8883C104.888 62.7394 104.837 62.5827 104.74 62.4617C104.585 62.2475 104.355 62.098 104.394 61.7197C104.213 61.6125 104.055 61.4767 103.983 61.2192C103.905 61.1899 103.827 61.1605 103.749 61.1312C103.683 60.8731 103.533 60.7256 103.344 60.6385C103.392 60.4532 103.34 60.3534 103.204 60.3126C103.108 60.2857 103.017 60.2432 102.923 60.2085C102.842 60.0164 102.765 59.8197 102.68 59.632C102.607 59.4681 102.592 59.3038 102.61 59.117C102.505 59.0757 102.398 59.0448 102.415 58.8462C102.431 58.6586 102.294 58.6747 102.212 58.6211C102.178 58.547 102.152 58.4644 102.083 58.4325C101.739 58.2842 101.394 58.1411 101.01 58.2743C100.932 58.2535 100.854 58.2327 100.776 58.2118C100.66 58.2803 100.548 58.3586 100.447 58.4605L100.45 58.4501C100.355 58.7384 100.171 58.9711 100.103 59.2772C100.065 59.4404 100.026 59.6029 100.11 59.7507C100.082 59.8577 100.058 59.9661 100.033 60.0737C100.065 60.2466 100.191 60.3377 100.235 60.5002C100.332 60.5532 100.442 60.5847 100.433 60.7776C100.425 60.9226 100.528 60.9319 100.61 60.9541C100.855 61.0206 101.101 61.0871 101.345 61.1503C101.438 61.0771 101.533 61.0497 101.639 61.0858C101.823 61.1486 102.006 61.2192 102.202 61.2291C102.309 61.2345 102.355 61.3381 102.397 61.443C102.474 61.475 102.553 61.5076 102.631 61.5369C102.702 61.7911 102.853 61.9361 103.038 62.0303L103.036 62.0296C103.143 62.2873 103.277 62.5204 103.393 62.7671C103.47 62.799 103.547 62.831 103.625 62.8629C103.693 63.0707 103.828 63.2247 103.868 63.4538C103.954 63.6676 104.125 63.7996 104.173 64.0458C104.235 64.1776 104.282 64.3185 104.34 64.4517C104.391 64.5913 104.444 64.7284 104.504 64.8596L104.508 64.8609C104.521 65.0101 104.652 65.0633 104.672 65.2119C104.677 65.3813 104.797 65.4704 104.831 65.6236C104.797 65.9385 104.972 66.1458 105.066 66.3766C105.125 66.5215 105.151 66.627 105.132 66.7792C105.179 66.9201 105.236 67.0532 105.289 67.1903C105.269 67.2745 105.252 67.3593 105.231 67.4461C105.205 67.6329 105.352 67.7086 105.371 67.8682C105.334 68.0857 105.26 68.2989 105.273 68.5246C105.312 68.6713 105.379 68.7993 105.422 68.9415C105.393 69.0708 105.364 69.2 105.335 69.3293C105.344 69.7752 105.247 70.2276 105.3 70.6713C105.154 71.3058 105.009 71.9376 104.865 72.5727C104.672 72.825 104.5 73.0958 104.41 73.4312C104.353 73.6419 104.192 73.6865 104.079 73.8041C104.048 73.9071 104.02 74.0109 103.989 74.1114C103.827 74.2207 103.697 74.4093 103.517 74.4786C103.355 74.5939 103.22 74.7635 103.053 74.8656L103.055 74.8748C102.942 74.9413 102.834 75.0268 102.727 75.1123C102.493 75.0838 102.329 75.3318 102.14 75.452C102.02 75.5302 101.92 75.6354 101.8 75.5718C101.609 75.4756 101.569 75.7826 101.428 75.8058C101.25 75.7594 101.101 75.8733 100.954 75.9965C100.866 75.9893 100.779 75.9822 100.692 75.9783C100.58 76.0507 100.475 76.1427 100.36 76.2086C100.254 76.1869 100.15 76.1371 100.067 76.3163C99.9937 76.4786 99.8853 76.3935 99.7896 76.3836C99.5817 76.2873 99.4283 76.5189 99.2476 76.5823C99.1298 76.6586 99.0444 76.8084 98.9091 76.8447C98.8312 76.8239 98.7533 76.803 98.6747 76.7848C98.559 76.8533 98.4529 76.9421 98.3417 77.0177L98.2474 76.9942C98.0932 77.0127 97.9543 77.1045 97.8161 77.1937C97.7264 77.1774 97.6435 77.1179 97.5455 77.1669C97.4447 77.2603 97.3367 77.34 97.2236 77.4065C97.105 77.386 96.9924 77.3505 96.9068 77.5428C96.857 77.6536 96.7681 77.6006 96.6934 77.5922C96.5918 77.5804 96.4916 77.5718 96.3893 77.5626C96.2221 77.6817 96.0588 77.8191 95.8679 77.7144C95.7598 77.811 95.6511 77.9018 95.5204 77.8289C95.4374 77.7865 95.363 77.8349 95.2893 77.8893C95.2565 77.8839 95.2238 77.8784 95.191 77.8729C94.8651 77.7705 94.5337 77.8224 94.2026 77.9396C94.1227 77.9181 94.0428 77.8966 93.963 77.8751C93.5509 77.7008 93.0849 77.9027 92.6769 77.6958C92.6148 77.6633 92.5419 77.6896 92.473 77.7087C92.446 77.7222 92.419 77.7357 92.3907 77.7545L92.3842 77.7466Z" fill="#2A2928"/>
<rect width="12.3459" height="23.7951" rx="5.86645" transform="matrix(0.947294 0.322317 -0.248923 0.969135 83.9365 69.2349)" fill="#81B51F"/>
<rect width="12.3459" height="23.7951" rx="5.86645" transform="matrix(0.947294 0.322317 -0.248923 0.969135 72.5889 65.52)" fill="#81B51F"/>
<path d="M79.3855 76.1231C79.3487 76.1975 79.0378 76.3915 79.1585 76.5148C79.2036 76.5609 79.5188 76.6902 79.5611 76.6198C79.7924 76.2347 79.1139 76.1712 79.1297 76.2007" stroke="black" stroke-width="0.687869" stroke-linecap="round"/>
<path d="M83.2195 77.38C83.1827 77.4544 82.8718 77.6483 82.9924 77.7717C83.0375 77.8178 83.3528 77.947 83.3951 77.8766C83.6264 77.4915 82.9479 77.428 82.9636 77.4575" stroke="black" stroke-width="0.687869" stroke-linecap="round"/>
<path d="M75.9785 77.1938C76.8066 78.8237 78.2105 80.0686 79.8812 80.6547C81.552 81.2409 83.3528 81.1202 84.8876 80.3194" stroke="black" stroke-width="1.18221" stroke-linecap="round" stroke-linejoin="round"/>
</svg>
